<svg xmlns="http://www.w3.org/2000/svg" viewBox="0 0 800 500"><defs><linearGradient id="bg" x1="0" y1="0" x2="800" y2="500" gradientUnits="userSpaceOnUse"><stop offset="0%" stop-color="#1e3a5f"/><stop offset="100%" stop-color="#0f2040"/></linearGradient></defs><rect width="800" height="500" fill="url(#bg)"/><rect x="100" y="220" width="500" height="180" rx="8" fill="#2d5a8e" stroke="#f59e0b" stroke-width="3"/><rect x="280" y="160" width="320" height="220" rx="6" fill="#1e4976" stroke="#f59e0b" stroke-width="2"/><rect x="100" y="250" width="170" height="150" rx="8" fill="#162d4e" stroke="#f59e0b" stroke-width="2"/><rect x="120" y="265" width="130" height="70" rx="4" fill="#3b82f6" opacity="0.6"/><circle cx="185" cy="410" r="45" fill="#0f172a" stroke="#64748b" stroke-width="4"/><circle cx="185" cy="410" r="25" fill="#1e293b"/><circle cx="510" cy="410" r="45" fill="#0f172a" stroke="#64748b" stroke-width="4"/><circle cx="510" cy="410" r="25" fill="#1e293b"/><circle cx="610" cy="410" r="45" fill="#0f172a" stroke="#64748b" stroke-width="4"/><circle cx="610" cy="410" r="25" fill="#1e293b"/><line x1="280" y1="200" x2="600" y2="200" stroke="#f59e0b" stroke-width="1.5" opacity="0.5"/><line x1="280" y1="240" x2="600" y2="240" stroke="#f59e0b" stroke-width="1.5" opacity="0.5"/><line x1="280" y1="280" x2="600" y2="280" stroke="#f59e0b" stroke-width="1.5" opacity="0.5"/><text x="400" y="80" font-family="Georgia,serif" font-size="32" font-weight="bold" fill="white" text-anchor="middle">Construction de Bennes</text><text x="400" y="115" font-family="Arial" font-size="16" fill="#f59e0b" text-anchor="middle">Plateaux • Fourgons • Conteneurs • Ordures</text><rect x="150" y="130" width="500" height="3" rx="2" fill="#f59e0b"/></svg>