<svg xmlns="http://www.w3.org/2000/svg" viewBox="0 0 800 500"><defs><linearGradient id="bg3" x1="0" y1="0" x2="800" y2="500" gradientUnits="userSpaceOnUse"><stop offset="0%" stop-color="#14532d"/><stop offset="100%" stop-color="#052e16"/></linearGradient></defs><rect width="800" height="500" fill="url(#bg3)"/><rect x="80" y="220" width="620" height="180" rx="16" fill="#166534" stroke="#f59e0b" stroke-width="3"/><rect x="110" y="245" width="70" height="50" rx="4" fill="#4ade80" opacity="0.4"/><rect x="200" y="245" width="70" height="50" rx="4" fill="#4ade80" opacity="0.4"/><rect x="290" y="245" width="70" height="50" rx="4" fill="#4ade80" opacity="0.4"/><rect x="380" y="245" width="70" height="50" rx="4" fill="#4ade80" opacity="0.4"/><rect x="470" y="245" width="70" height="50" rx="4" fill="#4ade80" opacity="0.4"/><rect x="560" y="245" width="100" height="50" rx="4" fill="#4ade80" opacity="0.4"/><rect x="80" y="295" width="620" height="8" fill="#f59e0b" opacity="0.8"/><circle cx="200" cy="420" r="42" fill="#1c1917" stroke="#64748b" stroke-width="4"/><circle cx="200" cy="420" r="22" fill="#292524"/><circle cx="580" cy="420" r="42" fill="#1c1917" stroke="#64748b" stroke-width="4"/><circle cx="580" cy="420" r="22" fill="#292524"/><text x="400" y="75" font-family="Georgia,serif" font-size="32" font-weight="bold" fill="white" text-anchor="middle">Transformation &amp; Aménagement</text><text x="400" y="110" font-family="Arial" font-size="16" fill="#f59e0b" text-anchor="middle">Bus • Mini-bus • Véhicules lourds</text><rect x="150" y="133" width="500" height="3" rx="2" fill="#f59e0b"/></svg>