<svg xmlns="http://www.w3.org/2000/svg" viewBox="0 0 800 500"><defs><linearGradient id="bg2" x1="0" y1="0" x2="800" y2="500" gradientUnits="userSpaceOnUse"><stop offset="0%" stop-color="#7c2d12"/><stop offset="100%" stop-color="#431407"/></linearGradient></defs><rect width="800" height="500" fill="url(#bg2)"/><rect x="80" y="260" width="620" height="140" rx="8" fill="#9a3412" stroke="#f59e0b" stroke-width="3"/><rect x="80" y="290" width="160" height="110" rx="8" fill="#7c2d12" stroke="#f59e0b" stroke-width="2"/><rect x="98" y="305" width="125" height="60" rx="4" fill="#fb923c" opacity="0.4"/><rect x="320" y="140" width="20" height="130" rx="4" fill="#c2410c" stroke="#f59e0b" stroke-width="2" transform="rotate(-15 330 200)"/><rect x="280" y="100" width="90" height="60" rx="6" fill="#9a3412" stroke="#f59e0b" stroke-width="3"/><circle cx="170" cy="415" r="42" fill="#1c1917" stroke="#64748b" stroke-width="4"/><circle cx="170" cy="415" r="22" fill="#292524"/><circle cx="490" cy="415" r="42" fill="#1c1917" stroke="#64748b" stroke-width="4"/><circle cx="490" cy="415" r="22" fill="#292524"/><circle cx="590" cy="415" r="42" fill="#1c1917" stroke="#64748b" stroke-width="4"/><circle cx="590" cy="415" r="22" fill="#292524"/><text x="400" y="70" font-family="Georgia,serif" font-size="32" font-weight="bold" fill="white" text-anchor="middle">Véhicules Spéciaux</text><text x="400" y="105" font-family="Arial" font-size="16" fill="#f59e0b" text-anchor="middle">Nacelles • Dépannage • Publicitaires • Transport</text><rect x="150" y="128" width="500" height="3" rx="2" fill="#f59e0b"/></svg>